<svg width="24" height="25" viewBox="0 0 24 25" fill="none" xmlns="http://www.w3.org/2000/svg">
<path d="M18.337 17.6522L16.9891 19L11.2779 13.2888L11 12.6149V5H12.9037V12.2208L18.337 17.6522Z" fill="black"/>
<path d="M18.337 17.6522L16.9891 19L11.2779 13.2888L11 12.6149V5H12.9037V12.2208L18.337 17.6522Z" fill="#9F2E41"/>
<path fill-rule="evenodd" clip-rule="evenodd" d="M13.2331 0.0260489C16.0117 0.199709 18.6166 1.58899 20.5268 3.49924C22.7844 5.93048 24 8.88269 24 12.3559C24 15.1344 22.958 17.7393 21.2214 19.9969C19.4848 22.0808 17.0536 23.6438 14.2751 24.1647C11.4965 24.6857 8.71795 24.3384 6.28672 22.9491C3.85548 21.5598 1.94523 19.4759 0.903271 16.871C-0.138686 14.2661 -0.312346 11.3139 0.555952 8.70903C1.42425 5.93048 2.98719 3.6729 5.41842 2.10996C7.676 0.547028 10.4546 -0.147611 13.2331 0.0260489ZM14.1014 22.4281C16.359 21.9072 18.4429 20.6915 20.0058 18.7813C21.3951 16.871 22.2634 14.6135 22.0897 12.1822C22.0897 9.40367 21.0478 6.62511 19.1375 4.71486C17.4009 2.97826 15.317 1.9363 12.8858 1.76265C10.6282 1.58899 8.19698 2.10996 6.28672 3.49924C4.37646 4.88852 2.98719 6.79877 2.29255 9.23001C1.59791 11.4876 1.59791 13.9188 2.63987 16.1764C3.68183 18.434 5.24476 20.1706 7.32868 21.3862C9.41259 22.6018 11.8438 22.9491 14.1014 22.4281Z" fill="#9F2E41"/>
</svg>
