<svg width="24" height="24" viewBox="0 0 24 24" fill="none" xmlns="http://www.w3.org/2000/svg">
<path fill-rule="evenodd" clip-rule="evenodd" d="M16.2488 4.03139C15.1282 2.91085 13.6147 2.27173 12.0301 2.25H11.9701C10.3856 2.27173 8.87208 2.91085 7.75153 4.03139C6.63099 5.15193 5.99187 6.66546 5.97014 8.25C5.95001 9.37542 6.26654 10.4812 6.87914 11.4255L11.6003 21H12.4L17.1211 11.4255C17.7337 10.4812 18.0503 9.37542 18.0301 8.25C18.0084 6.66546 17.3693 5.15193 16.2488 4.03139ZM11.8861 3.75L12.0091 3.765L12.1201 3.75C13.2985 3.80132 14.4124 4.3021 15.2329 5.14939C16.0534 5.99669 16.5182 7.12611 16.5316 8.3055C16.543 9.14253 16.2986 9.96309 15.8311 10.6575L15.8011 10.7085L15.7756 10.761L12.0001 18.4185L8.22464 10.7685L8.19914 10.71L8.16914 10.659C7.70165 9.96459 7.45726 9.14403 7.46864 8.307C7.48143 7.12625 7.94673 5.99539 8.76862 5.14755C9.59051 4.2997 10.7064 3.79948 11.8861 3.75ZM12.8033 7.0028C12.5567 6.83797 12.2666 6.75 11.97 6.75C11.5721 6.75 11.1906 6.90804 10.9093 7.18934C10.628 7.47064 10.47 7.85218 10.47 8.25C10.47 8.54667 10.5579 8.83668 10.7228 9.08336C10.8876 9.33003 11.1219 9.52229 11.3959 9.63582C11.67 9.74935 11.9716 9.77906 12.2626 9.72118C12.5536 9.6633 12.8209 9.52044 13.0306 9.31066C13.2404 9.10088 13.3833 8.83361 13.4412 8.54264C13.499 8.25166 13.4693 7.95006 13.3558 7.67598C13.2423 7.40189 13.05 7.16762 12.8033 7.0028ZM10.3033 5.75559C10.7966 5.42595 11.3766 5.25 11.97 5.25C12.7656 5.25 13.5287 5.56607 14.0913 6.12868C14.6539 6.69129 14.97 7.45435 14.97 8.25C14.97 8.84334 14.794 9.42336 14.4644 9.91671C14.1347 10.4101 13.6662 10.7946 13.118 11.0216C12.5698 11.2487 11.9666 11.3081 11.3847 11.1924C10.8028 11.0766 10.2682 10.7909 9.84865 10.3713C9.42909 9.95176 9.14337 9.41721 9.02762 8.83527C8.91186 8.25333 8.97127 7.65013 9.19833 7.10195C9.4254 6.55377 9.80991 6.08524 10.3033 5.75559Z" fill="#9F2E41"/>
</svg>
