<svg width="40" height="40" viewBox="0 0 40 40" fill="none" xmlns="http://www.w3.org/2000/svg">
<g clip-path="url(#clip0_117_1421)">
<path d="M40 19.98C40 8.95105 31.04 0 20 0C8.96 0 0 8.95105 0 19.98C0 26.0539 2.76 31.5285 7.08 35.2048C7.12 35.2448 7.16 35.2448 7.16 35.2847C7.52 35.5644 7.88 35.8442 8.28 36.1239C8.48 36.2438 8.64 36.4036 8.84 36.5634C12.04 38.7213 15.88 40 20.04 40C24.2 40 28.04 38.7213 31.24 36.5634C31.44 36.4436 31.6 36.2837 31.8 36.1638C32.16 35.8841 32.56 35.6044 32.92 35.3247C32.96 35.2847 33 35.2847 33 35.2448C37.24 31.5285 40 26.0539 40 19.98ZM20 37.4825C16.24 37.4825 12.8 36.2837 9.96 34.2857C10 33.966 10.08 33.6464 10.16 33.3267C10.4 32.4476 10.76 31.6084 11.2 30.8492C11.64 30.0899 12.16 29.4106 12.8 28.8112C13.4 28.2118 14.12 27.6523 14.84 27.2128C15.6 26.7732 16.4 26.4535 17.28 26.2138C18.16 25.974 19.08 25.8541 20 25.8541C21.48 25.8541 22.84 26.1339 24.08 26.6533C25.32 27.1728 26.4 27.8921 27.32 28.7712C28.24 29.6903 28.96 30.7692 29.48 32.008C29.76 32.7273 29.96 33.4865 30.08 34.2857C27.2 36.2837 23.76 37.4825 20 37.4825ZM13.88 18.981C13.52 18.1818 13.36 17.3027 13.36 16.4236C13.36 15.5445 13.52 14.6653 13.88 13.8661C14.24 13.0669 14.72 12.3477 15.32 11.7483C15.92 11.1489 16.64 10.6693 17.44 10.3097C18.24 9.95005 19.12 9.79021 20 9.79021C20.92 9.79021 21.76 9.95005 22.56 10.3097C23.36 10.6693 24.08 11.1489 24.68 11.7483C25.28 12.3477 25.76 13.0669 26.12 13.8661C26.48 14.6653 26.64 15.5445 26.64 16.4236C26.64 17.3427 26.48 18.1818 26.12 18.981C25.76 19.7802 25.28 20.4995 24.68 21.0989C24.08 21.6983 23.36 22.1778 22.56 22.5375C20.96 23.2168 19 23.2168 17.4 22.5375C16.6 22.1778 15.88 21.6983 15.28 21.0989C14.68 20.4995 14.2 19.7802 13.88 18.981ZM32.44 32.2478C32.44 32.1678 32.4 32.1279 32.4 32.048C32 30.8092 31.44 29.6104 30.68 28.5315C29.92 27.4525 29.04 26.4935 27.96 25.6943C27.16 25.0949 26.28 24.5754 25.36 24.1758C25.8 23.8961 26.2 23.5365 26.52 23.2168C27.12 22.6174 27.64 21.978 28.08 21.2587C28.52 20.5395 28.84 19.7802 29.08 18.9411C29.32 18.1019 29.4 17.2627 29.4 16.4236C29.4 15.1049 29.16 13.8661 28.68 12.7473C28.2 11.6284 27.52 10.6294 26.64 9.75025C25.8 8.91109 24.76 8.23177 23.64 7.75225C22.52 7.27273 21.28 7.03297 19.96 7.03297C18.64 7.03297 17.4 7.27273 16.28 7.75225C15.16 8.23177 14.12 8.91109 13.28 9.79021C12.44 10.6294 11.76 11.6683 11.28 12.7872C10.8 13.9061 10.56 15.1449 10.56 16.4635C10.56 17.3427 10.68 18.1818 10.92 18.981C11.16 19.8202 11.48 20.5794 11.92 21.2987C12.32 22.018 12.88 22.6573 13.48 23.2567C13.84 23.6164 14.24 23.9361 14.68 24.2158C13.72 24.6553 12.84 25.1748 12.08 25.7742C11.04 26.5734 10.12 27.5325 9.36 28.5714C8.6 29.6504 8.04 30.8092 7.64 32.0879C7.6 32.1678 7.6 32.2478 7.6 32.2877C4.44 29.0909 2.48 24.7752 2.48 19.98C2.48 10.3497 10.36 2.47752 20 2.47752C29.64 2.47752 37.52 10.3497 37.52 19.98C37.52 24.7752 35.56 29.0909 32.44 32.2478Z" fill="#F3637C"/>
</g>
<defs>
<clipPath id="clip0_117_1421">
<rect width="40" height="40" fill="white"/>
</clipPath>
</defs>
</svg>
