<svg width="25" height="24" viewBox="0 0 25 24" fill="none" xmlns="http://www.w3.org/2000/svg">
<path d="M13.4727 9.97266L20.4336 3H15.5V1.5H23V9H21.5V4.06641L14.5273 11.0273L13.4727 9.97266ZM18.4297 13.8164C18.7344 13.8164 19.0313 13.875 19.3203 13.9922C19.6094 14.1094 19.8633 14.2773 20.082 14.4961C20.2461 14.6602 20.4297 14.832 20.6328 15.0117C20.8359 15.1914 21.0508 15.3828 21.2773 15.5859C21.5039 15.7891 21.7148 16 21.9102 16.2188C22.1055 16.4375 22.2891 16.6602 22.4609 16.8867C22.6328 17.1133 22.7617 17.3555 22.8477 17.6133C22.9336 17.8711 22.9844 18.1289 23 18.3867C23 18.6914 22.9414 18.9883 22.8242 19.2773C22.707 19.5664 22.5391 19.8203 22.3203 20.0391C21.9219 20.4375 21.5625 20.7891 21.2422 21.0938C20.9219 21.3984 20.5898 21.6562 20.2461 21.8672C19.9023 22.0781 19.5156 22.2344 19.0859 22.3359C18.6562 22.4375 18.1523 22.4922 17.5742 22.5C16.7227 22.5 15.8477 22.3672 14.9492 22.1016C14.0508 21.8359 13.1562 21.4688 12.2656 21C11.375 20.5312 10.5039 19.9727 9.65234 19.3242C8.80078 18.6758 7.99609 17.9688 7.23828 17.2031C6.48047 16.4375 5.77734 15.6289 5.12891 14.7773C4.48047 13.9258 3.92969 13.0586 3.47656 12.1758C3.02344 11.293 2.66406 10.4062 2.39844 9.51562C2.13281 8.625 2 7.76562 2 6.9375C2 6.34375 2.05078 5.83594 2.15234 5.41406C2.25391 4.99219 2.41016 4.60938 2.62109 4.26562C2.83203 3.92187 3.08984 3.58984 3.39453 3.26953C3.69922 2.94922 4.05469 2.58594 4.46094 2.17969C4.67969 1.96094 4.93359 1.79297 5.22266 1.67578C5.51172 1.55859 5.80859 1.5 6.11328 1.5C6.50391 1.5 6.87891 1.60547 7.23828 1.81641C7.59766 2.02734 7.94531 2.28516 8.28125 2.58984C8.61719 2.89453 8.92578 3.21484 9.20703 3.55078C9.48828 3.88672 9.75391 4.17578 10.0039 4.41797C10.2227 4.63672 10.3906 4.89063 10.5078 5.17969C10.625 5.46875 10.6836 5.76562 10.6836 6.07031C10.6836 6.375 10.6328 6.64844 10.5312 6.89062C10.4297 7.13281 10.3047 7.34766 10.1562 7.53516C10.0078 7.72266 9.84375 7.89844 9.66406 8.0625C9.48438 8.22656 9.32031 8.38281 9.17188 8.53125C9.02344 8.67969 8.89453 8.82422 8.78516 8.96484C8.67578 9.10547 8.625 9.26172 8.63281 9.43359C8.63281 9.52734 8.70312 9.67578 8.84375 9.87891C8.98438 10.082 9.17969 10.3242 9.42969 10.6055C9.67969 10.8867 9.95703 11.1875 10.2617 11.5078C10.5664 11.8281 10.8945 12.1602 11.2461 12.5039C11.5977 12.8477 11.9375 13.1797 12.2656 13.5C12.5938 13.8203 12.9102 14.125 13.2148 14.4141C13.5195 14.7031 13.7773 14.9492 13.9883 15.1523C14.1992 15.3555 14.3633 15.5117 14.4805 15.6211C14.6445 15.7852 14.8398 15.8672 15.0664 15.8672C15.2305 15.8672 15.3828 15.8164 15.5234 15.7148C15.6641 15.6133 15.8086 15.4883 15.957 15.3398C16.1055 15.1914 16.2578 15.0273 16.4141 14.8477C16.5703 14.668 16.75 14.5039 16.9531 14.3555C17.1563 14.207 17.3711 14.0781 17.5977 13.9688C17.8242 13.8594 18.1016 13.8086 18.4297 13.8164ZM17.5742 21C18.0508 21 18.4492 20.957 18.7695 20.8711C19.0898 20.7852 19.3828 20.6523 19.6484 20.4727C19.9141 20.293 20.1641 20.082 20.3984 19.8398C20.6328 19.5977 20.918 19.3125 21.2539 18.9844C21.418 18.8203 21.5 18.625 21.5 18.3984C21.5 18.2969 21.4375 18.1523 21.3125 17.9648C21.1875 17.7773 21.0312 17.5664 20.8438 17.332C20.6562 17.0977 20.4414 16.8633 20.1992 16.6289C19.957 16.3945 19.7227 16.1797 19.4961 15.9844C19.2695 15.7891 19.0625 15.6289 18.875 15.5039C18.6875 15.3789 18.5391 15.3164 18.4297 15.3164C18.2656 15.3164 18.1094 15.3672 17.9609 15.4688C17.8125 15.5703 17.668 15.6953 17.5273 15.8438C17.3867 15.9922 17.2344 16.1563 17.0703 16.3359C16.9062 16.5156 16.7266 16.6797 16.5312 16.8281C16.3359 16.9766 16.1211 17.1055 15.8867 17.2148C15.6523 17.3242 15.3789 17.375 15.0664 17.3672C14.7539 17.3672 14.457 17.3086 14.1758 17.1914C13.8945 17.0742 13.6406 16.9023 13.4141 16.6758L7.82422 11.0859C7.60547 10.8672 7.4375 10.6172 7.32031 10.3359C7.20312 10.0547 7.14063 9.75391 7.13281 9.43359C7.13281 9.12891 7.18359 8.85938 7.28516 8.625C7.38672 8.39062 7.51172 8.17188 7.66016 7.96875C7.80859 7.76562 7.97266 7.58984 8.15234 7.44141C8.33203 7.29297 8.49609 7.13672 8.64453 6.97266C8.79297 6.80859 8.92188 6.66406 9.03125 6.53906C9.14062 6.41406 9.19141 6.25781 9.18359 6.07031C9.18359 5.96875 9.12109 5.82422 8.99609 5.63672C8.87109 5.44922 8.71484 5.24219 8.52734 5.01562C8.33984 4.78906 8.125 4.55469 7.88281 4.3125C7.64063 4.07031 7.40625 3.85547 7.17969 3.66797C6.95312 3.48047 6.74219 3.32031 6.54688 3.1875C6.35156 3.05469 6.20703 2.99219 6.11328 3C5.87891 3 5.67969 3.08203 5.51562 3.24609C5.19531 3.56641 4.91016 3.84766 4.66016 4.08984C4.41016 4.33203 4.19922 4.58203 4.02734 4.83984C3.85547 5.09766 3.72656 5.39062 3.64062 5.71875C3.55469 6.04688 3.50781 6.44141 3.5 6.90234C3.5 7.65234 3.62109 8.42578 3.86328 9.22266C4.10547 10.0195 4.44141 10.8242 4.87109 11.6367C5.30078 12.4492 5.81641 13.2383 6.41797 14.0039C7.01953 14.7695 7.66406 15.5 8.35156 16.1953C9.03906 16.8906 9.77344 17.5312 10.5547 18.1172C11.3359 18.7031 12.125 19.2109 12.9219 19.6406C13.7188 20.0703 14.5117 20.4023 15.3008 20.6367C16.0898 20.8711 16.8477 20.9922 17.5742 21Z" fill="#9F2E41"/>
</svg>
