<svg width="17" height="17" viewBox="0 0 17 17" fill="none" xmlns="http://www.w3.org/2000/svg">
<path fill-rule="evenodd" clip-rule="evenodd" d="M9.34431 3.69992C11.913 5.34897 13.1604 7.05088 13.1604 9.89444C12.9913 9.84159 12.8433 9.84159 12.6953 9.84159C11.3528 9.84159 10.0526 10.7507 10.0526 12.3892C10.0526 14.0911 11.1414 15.1482 12.6953 15.1482C14.7037 15.1482 15.856 13.5414 15.856 10.6555C15.856 6.63862 14.0061 3.75277 10.5494 1.75488L9.34431 3.69992ZM1.94471 3.69992C4.51343 5.34897 5.76079 7.05088 5.76079 9.89444C5.59166 9.84159 5.44366 9.84159 5.29567 9.84159C3.95317 9.84159 2.65296 10.7507 2.65296 12.3892C2.65296 14.0911 3.74176 15.1482 5.29567 15.1482C7.29356 15.1482 8.44579 13.5414 8.44579 10.6555C8.44579 6.63862 6.59589 3.75277 3.13922 1.75488L1.93414 3.69992H1.94471Z" fill="#C5C5C5"/>
</svg>
