<svg width="17" height="17" viewBox="0 0 17 17" fill="none" xmlns="http://www.w3.org/2000/svg">
<path fill-rule="evenodd" clip-rule="evenodd" d="M7.56878 3.69992C5.00006 5.34897 3.7527 7.05088 3.7527 9.89444C3.92183 9.84159 4.06982 9.84159 4.21781 9.84159C5.56031 9.84159 6.86053 10.7507 6.86053 12.3892C6.86053 14.0911 5.77173 15.1482 4.21781 15.1482C2.20935 15.1482 1.05713 13.5414 1.05713 10.6555C1.05713 6.63862 2.90703 3.75277 6.3637 1.75488L7.56878 3.69992ZM14.9684 3.69992C12.3997 5.34897 11.1523 7.05088 11.1523 9.89444C11.3214 9.84159 11.4694 9.84159 11.6174 9.84159C12.9599 9.84159 14.2601 10.7507 14.2601 12.3892C14.2601 14.0911 13.1713 15.1482 11.6174 15.1482C9.61952 15.1482 8.4673 13.5414 8.4673 10.6555C8.4673 6.63862 10.3172 3.75277 13.7739 1.75488L14.9789 3.69992H14.9684V3.69992Z" fill="#C5C5C5"/>
</svg>
